<svg width="18" height="16" viewBox="0 0 18 16" fill="none" xmlns="http://www.w3.org/2000/svg">
<path d="M15.749 8.26428L15.7313 8.27939L15.715 8.29608L8.91869 15.2845L2.06124 8.29759L2.04556 8.28161L2.02851 8.26709C1.92714 8.1808 1.82866 8.08873 1.73349 7.99085C0.080639 6.29103 0.0878632 3.51227 1.7613 1.79127C3.35138 0.155998 5.86301 0.0756975 7.51755 1.54033L8.53676 2.54011L8.88682 2.8835L9.23695 2.54019L10.2573 1.53974C11.9118 0.0757206 14.423 0.156218 16.0129 1.79127C17.6863 3.51227 17.6935 6.29103 16.0407 7.99085C15.9465 8.08767 15.8492 8.1788 15.749 8.26428Z" stroke="#F39C13"/>
</svg>
